<svg width="37" height="32" viewBox="0 0 37 32" fill="none" xmlns="http://www.w3.org/2000/svg">
<mask id="mask0_1268_9044" style="mask-type:luminance" maskUnits="userSpaceOnUse" x="0" y="0" width="20" height="22">
<path fill-rule="evenodd" clip-rule="evenodd" d="M0 0H19.0968V21.3333H0V0Z" fill="white"/>
</mask>
<g mask="url(#mask0_1268_9044)">
<path fill-rule="evenodd" clip-rule="evenodd" d="M7.6898 15.4234C7.6898 11.6002 10.9093 8.49722 14.8785 8.49722C16.335 8.49722 17.6882 8.91614 18.8191 9.63311C18.9981 9.31866 19.0968 9.13615 19.0968 9.13615C19.0968 9.13615 8.45089 -0.0125914 8.44498 -0.000201049C5.77421 3.67772 -3.70258 12.8167 1.57014 19.4158C1.95729 19.9043 2.52967 20.3404 3.20423 20.6906C4.32918 21.1872 6.0147 21.5201 7.54244 21.2184C8.28685 21.0717 9.0754 20.7914 9.87819 20.4023C8.52908 19.1418 7.6898 17.3771 7.6898 15.4234Z" fill="#EA6120"/>
</g>
<mask id="mask1_1268_9044" style="mask-type:luminance" maskUnits="userSpaceOnUse" x="1" y="9" width="33" height="23">
<path fill-rule="evenodd" clip-rule="evenodd" d="M1.1936 9.48148H33.4194V32H1.1936V9.48148Z" fill="white"/>
</mask>
<g mask="url(#mask1_1268_9044)">
<path fill-rule="evenodd" clip-rule="evenodd" d="M33.4194 17.3235L31.0334 15.1106L32.6889 11.6982L30.2957 9.48148L28.6398 12.8938L26.2535 10.6826L24.5946 14.0949L26.9823 16.3079L26.9877 16.3137L25.3315 19.725L22.938 17.5069L24.5946 14.0949L19.9034 9.74679L17.7399 13.7916C14.9057 19.1183 10.8327 21.8742 7.31471 22.3209C3.76357 22.7723 1.6952 20.8175 1.1936 20.4212C1.1936 20.4212 2.56156 25.1087 6.70134 28.3123C14.4288 34.2955 25.3769 32.9011 29.6559 24.8352L33.4194 17.3235Z" fill="#00479C"/>
</g>
<path fill-rule="evenodd" clip-rule="evenodd" d="M37 9.44316L35.0453 13.037L32.2258 10.7033L34.1794 7.11111L37 9.44316Z" fill="#00479C"/>
<path fill-rule="evenodd" clip-rule="evenodd" d="M26.2581 4.70289L24.3042 8.29629L21.4839 5.96212L23.4385 2.37036L26.2581 4.70289Z" fill="#00479C"/>
<path fill-rule="evenodd" clip-rule="evenodd" d="M29.8386 3.51777L27.8848 7.11111L25.0645 4.77852L27.0183 1.18518L29.8386 3.51777Z" fill="#00479C"/>
</svg>
