<svg width="111" height="32" viewBox="0 0 111 32" fill="none" xmlns="http://www.w3.org/2000/svg">
<g clip-path="url(#clip0_0_1970)">
<mask id="mask0_0_1970" style="mask-type:luminance" maskUnits="userSpaceOnUse" x="0" y="0" width="20" height="22">
<path fill-rule="evenodd" clip-rule="evenodd" d="M0 0H19.0968V21.3333H0V0Z" fill="white"/>
</mask>
<g mask="url(#mask0_0_1970)">
<path fill-rule="evenodd" clip-rule="evenodd" d="M7.6898 15.4234C7.6898 11.6002 10.9093 8.49722 14.8785 8.49722C16.335 8.49722 17.6882 8.91614 18.8191 9.63311C18.9981 9.31866 19.0968 9.13615 19.0968 9.13615C19.0968 9.13615 8.45089 -0.0125914 8.44498 -0.000201049C5.77421 3.67772 -3.70258 12.8167 1.57014 19.4158C1.95729 19.9043 2.52967 20.3404 3.20423 20.6906C4.32918 21.1872 6.0147 21.5201 7.54244 21.2184C8.28685 21.0717 9.0754 20.7914 9.87819 20.4023C8.52908 19.1418 7.6898 17.3771 7.6898 15.4234" fill="#EA6120"/>
</g>
<mask id="mask1_0_1970" style="mask-type:luminance" maskUnits="userSpaceOnUse" x="1" y="9" width="33" height="23">
<path fill-rule="evenodd" clip-rule="evenodd" d="M1.1936 9.48148H33.4194V32H1.1936V9.48148Z" fill="white"/>
</mask>
<g mask="url(#mask1_0_1970)">
<path fill-rule="evenodd" clip-rule="evenodd" d="M33.4194 17.3235L31.0334 15.1106L32.6889 11.6982L30.2957 9.48148L28.6398 12.8938L26.2535 10.6826L24.5946 14.0949L26.9823 16.3079L26.9877 16.3137L25.3315 19.725L22.938 17.5069L24.5946 14.0949L19.9034 9.74679L17.7399 13.7916C14.9057 19.1183 10.8327 21.8743 7.31471 22.3209C3.76357 22.7723 1.6952 20.8175 1.1936 20.4212C1.1936 20.4212 2.56156 25.1087 6.70134 28.3123C14.4288 34.2955 25.3769 32.9011 29.6559 24.8352L33.4194 17.3235Z" fill="#00479C"/>
</g>
<path fill-rule="evenodd" clip-rule="evenodd" d="M37 9.44316L35.0453 13.037L32.2258 10.7033L34.1794 7.11111L37 9.44316Z" fill="#00479C"/>
<path fill-rule="evenodd" clip-rule="evenodd" d="M26.2581 4.7029L24.3042 8.29629L21.4839 5.96213L23.4385 2.37037L26.2581 4.7029Z" fill="#00479C"/>
<path fill-rule="evenodd" clip-rule="evenodd" d="M29.8386 3.51778L27.8848 7.11111L25.0645 4.77853L27.0183 1.18519L29.8386 3.51778Z" fill="#00479C"/>
<path d="M55.3906 4.25H60.875V19.1094C60.875 20.8802 60.5052 22.3802 59.7656 23.6094C59.026 24.8281 57.9896 25.75 56.6562 26.375C55.3229 27 53.7552 27.3125 51.9531 27.3125C50.1719 27.3125 48.6042 27 47.25 26.375C45.9062 25.75 44.8542 24.8281 44.0938 23.6094C43.3438 22.3802 42.9688 20.8802 42.9688 19.1094V4.25H48.4688V19.1094C48.4688 20.0469 48.6042 20.8125 48.875 21.4062C49.1458 21.9896 49.5417 22.4167 50.0625 22.6875C50.5833 22.9583 51.2135 23.0938 51.9531 23.0938C52.7031 23.0938 53.3333 22.9583 53.8438 22.6875C54.3542 22.4167 54.7396 21.9896 55 21.4062C55.2604 20.8125 55.3906 20.0469 55.3906 19.1094V4.25ZM67.0469 4.25H71.5156L76.5938 20.0781L81.6719 4.25H86.1406L78.4062 27H74.7812L67.0469 4.25ZM64.3281 4.25H68.9531L69.8125 21.6875V27H64.3281V4.25ZM84.2344 4.25H88.875V27H83.375V21.6875L84.2344 4.25ZM104.109 20.9531C104.109 20.599 104.057 20.2812 103.953 20C103.849 19.7083 103.656 19.4375 103.375 19.1875C103.094 18.9375 102.688 18.6875 102.156 18.4375C101.635 18.1771 100.948 17.9062 100.094 17.625C99.0938 17.2917 98.1302 16.9167 97.2031 16.5C96.276 16.0729 95.4479 15.5781 94.7188 15.0156C93.9896 14.4427 93.4115 13.776 92.9844 13.0156C92.5573 12.2448 92.3438 11.349 92.3438 10.3281C92.3438 9.34896 92.5625 8.46875 93 7.6875C93.4375 6.89583 94.0469 6.22396 94.8281 5.67188C95.6198 5.10938 96.5469 4.68229 97.6094 4.39062C98.6719 4.08854 99.8333 3.9375 101.094 3.9375C102.76 3.9375 104.229 4.22917 105.5 4.8125C106.781 5.38542 107.781 6.20312 108.5 7.26562C109.229 8.31771 109.594 9.5625 109.594 11H104.141C104.141 10.4271 104.021 9.92188 103.781 9.48438C103.552 9.04688 103.203 8.70312 102.734 8.45312C102.266 8.20312 101.677 8.07812 100.969 8.07812C100.281 8.07812 99.7031 8.18229 99.2344 8.39062C98.7656 8.59896 98.4115 8.88021 98.1719 9.23438C97.9323 9.57812 97.8125 9.95833 97.8125 10.375C97.8125 10.7188 97.9062 11.0312 98.0938 11.3125C98.2917 11.5833 98.5677 11.8385 98.9219 12.0781C99.2865 12.3177 99.724 12.5469 100.234 12.7656C100.755 12.9844 101.339 13.1979 101.984 13.4062C103.193 13.7917 104.266 14.224 105.203 14.7031C106.151 15.1719 106.948 15.7083 107.594 16.3125C108.25 16.9062 108.745 17.5833 109.078 18.3438C109.422 19.1042 109.594 19.9635 109.594 20.9219C109.594 21.9427 109.396 22.849 109 23.6406C108.604 24.4323 108.036 25.1042 107.297 25.6562C106.557 26.1979 105.672 26.6094 104.641 26.8906C103.609 27.1719 102.458 27.3125 101.188 27.3125C100.021 27.3125 98.8698 27.1667 97.7344 26.875C96.6094 26.5729 95.5885 26.1146 94.6719 25.5C93.7552 24.875 93.0208 24.0781 92.4688 23.1094C91.9271 22.1302 91.6562 20.9688 91.6562 19.625H97.1562C97.1562 20.2917 97.2448 20.8542 97.4219 21.3125C97.599 21.7708 97.8594 22.1406 98.2031 22.4219C98.5469 22.6927 98.9688 22.8906 99.4688 23.0156C99.9688 23.1302 100.542 23.1875 101.188 23.1875C101.885 23.1875 102.448 23.0885 102.875 22.8906C103.302 22.6823 103.615 22.4115 103.812 22.0781C104.01 21.7344 104.109 21.3594 104.109 20.9531Z" fill="#00479C"/>
</g>
<defs>
<clipPath id="clip0_0_1970">
<rect width="111" height="32" fill="white"/>
</clipPath>
</defs>
</svg>
